<svg xmlns="http://www.w3.org/2000/svg" aria-hidden="true">
  <symbol id="icon-carro" viewBox="0 0 24 24">
    <path d="M3 13h14v-2H3v2zm16-3h-1V7a2 2 0 0 0-2-2H6v9h1a2 2 0 0 0 4 0h4a2 2 0 0 0 4 0h1v-2a1 1 0 0 0-1-1z"></path>
  </symbol>
  <symbol id="icon-spinta" viewBox="0 0 24 24">
    <path d="M2 12h15l-4-4 1.4-1.4L21 12l-6.6 6.4L13 17l4-5H2v-0z"></path>
  </symbol>
  <symbol id="icon-benz" viewBox="0 0 24 24">
    <path d="M6 2h7v5l3 3v9a1 1 0 0 1-1 1H6a1 1 0 0 1-1-1V3a1 1 0 0 1 1-1z"></path>
  </symbol>
  <symbol id="icon-ruote" viewBox="0 0 24 24">
    <circle cx="12" cy="12" r="3"></circle>
    <path d="M12 2a10 10 0 1 0 0 20 10 10 0 0 0 0-20zm0 2a8 8 0 0 1 0 16 8 8 0 0 1 0-16z"></path>
  </symbol>
  <symbol id="icon-elet" viewBox="0 0 24 24">
    <path d="M13 2L3 14h7l-1 8 10-12h-7l1-8z"></path>
  </symbol>
  <symbol id="icon-vetri" viewBox="0 0 24 24">
    <path d="M5 3h14l-3 7H8L5 3zM3 20h18v1H3v-1z"></path>
  </symbol>
  <symbol id="icon-altro" viewBox="0 0 24 24">
    <circle cx="12" cy="5" r="2"></circle>
    <circle cx="12" cy="12" r="2"></circle>
    <circle cx="12" cy="19" r="2"></circle>
  </symbol>
</svg>
